<?xml version="1.0" standalone="no"?>
<!DOCTYPE svg PUBLIC "-//W3C//DTD SVG 20010904//EN"
 "http://www.w3.org/TR/2001/REC-SVG-20010904/DTD/svg10.dtd">
<svg version="1.0" xmlns="http://www.w3.org/2000/svg"
 width="512.000000pt" height="512.000000pt" viewBox="0 0 512.000000 512.000000"
 preserveAspectRatio="xMidYMid meet">
<metadata>
Created by potrace 1.11, written by Peter Selinger 2001-2013
</metadata>
<g transform="translate(0.000000,512.000000) scale(0.100000,-0.100000)"
fill="#000000" stroke="none">
<path d="M1648 2567 c-577 -308 -1047 -562 -1045 -563 1 -2 407 150 902 337
495 186 905 339 910 339 6 0 71 -157 147 -348 78 -199 141 -346 147 -344 17 4
2111 1125 2108 1128 -2 2 -477 -177 -1057 -396 -580 -220 -1056 -400 -1057
-400 -2 0 -4 182 -5 404 l-3 404 -1047 -561z"/>
</g>
</svg>
