<?xml version="1.0" standalone="no"?>
<!DOCTYPE svg PUBLIC "-//W3C//DTD SVG 20010904//EN"
 "http://www.w3.org/TR/2001/REC-SVG-20010904/DTD/svg10.dtd">
<svg version="1.0" xmlns="http://www.w3.org/2000/svg"
 width="512.000000pt" height="512.000000pt" viewBox="0 0 512.000000 512.000000"
 preserveAspectRatio="xMidYMid meet">
<metadata>
Created by potrace 1.11, written by Peter Selinger 2001-2013
</metadata>
<g transform="translate(0.000000,512.000000) scale(0.100000,-0.100000)"
fill="#000000" stroke="none">
<path d="M2369 5066 c-2 -2 -33 -7 -69 -10 -78 -6 -278 -39 -322 -52 -9 -3
-27 -7 -40 -9 -13 -3 -70 -19 -128 -36 -299 -89 -596 -242 -840 -433 -217
-170 -424 -397 -573 -627 -182 -282 -331 -667 -363 -940 -3 -30 -8 -57 -10
-60 -18 -31 -26 -483 -10 -609 12 -106 13 -111 30 -198 95 -496 337 -949 695
-1302 199 -196 349 -308 591 -441 267 -146 539 -234 915 -294 67 -10 485 -14
565 -4 151 17 177 21 270 41 52 10 105 21 118 24 49 10 321 103 392 135 197
87 379 194 535 313 117 89 138 108 275 246 195 195 333 389 460 645 122 246
206 515 237 759 3 23 7 52 9 66 3 14 6 117 8 230 4 185 -6 345 -28 455 -4 17
-9 46 -12 65 -3 19 -14 69 -25 110 -11 41 -22 84 -24 94 -19 85 -106 307 -168
431 -162 324 -422 640 -707 860 -200 155 -405 272 -642 366 -54 22 -104 39
-111 39 -7 0 -17 4 -22 9 -22 20 -334 91 -470 107 -22 3 -51 7 -65 10 -30 7
-465 16 -471 10z"/>
</g>
</svg>
