<?xml version="1.0" standalone="no"?>
<!DOCTYPE svg PUBLIC "-//W3C//DTD SVG 20010904//EN"
 "http://www.w3.org/TR/2001/REC-SVG-20010904/DTD/svg10.dtd">
<svg version="1.0" xmlns="http://www.w3.org/2000/svg"
 width="512.000000pt" height="512.000000pt" viewBox="0 0 512.000000 512.000000"
 preserveAspectRatio="xMidYMid meet">
<metadata>
Created by potrace 1.11, written by Peter Selinger 2001-2013
</metadata>
<g transform="translate(0.000000,512.000000) scale(0.100000,-0.100000)"
fill="#000000" stroke="none">
<path d="M5066 3231 c-3 -5 -16 -11 -28 -14 -13 -2 -131 -46 -263 -97 -132
-50 -251 -96 -265 -100 -14 -5 -47 -17 -75 -28 -44 -17 -406 -155 -570 -217
-33 -12 -109 -41 -170 -64 -60 -23 -114 -43 -120 -45 -5 -2 -17 -6 -25 -9 -28
-12 -335 -129 -400 -152 -36 -13 -184 -69 -329 -124 -145 -56 -267 -101 -270
-101 -4 0 -6 214 -6 475 0 261 -2 475 -4 475 -4 0 -211 -109 -293 -153 -24
-13 -88 -48 -143 -77 -55 -29 -122 -65 -150 -80 -27 -15 -86 -47 -130 -70 -44
-24 -102 -55 -130 -70 -27 -15 -90 -49 -140 -75 -49 -27 -175 -94 -280 -150
-104 -56 -244 -130 -310 -165 -66 -35 -133 -71 -150 -80 -16 -10 -66 -37 -110
-60 -101 -54 -213 -114 -290 -155 -33 -18 -89 -48 -125 -67 -171 -91 -260
-140 -260 -142 0 -2 177 64 392 146 216 82 398 151 403 152 6 2 17 6 25 9 8 4
220 84 470 178 487 183 745 280 825 311 28 10 54 20 60 21 10 2 14 -7 205
-490 l134 -341 61 33 c33 18 130 70 215 115 85 46 182 97 215 115 33 18 130
70 215 115 207 111 275 147 335 180 28 15 88 48 135 72 83 44 157 84 318 169
42 23 100 54 127 69 28 15 95 51 150 80 55 29 123 65 150 80 54 30 157 85 275
148 41 22 104 55 140 75 36 19 97 51 135 72 77 40 84 45 67 45 -6 0 -13 -4
-16 -9z"/>
</g>
</svg>
